<svg xmlns="http://www.w3.org/2000/svg" version="1.1" xmlns:xlink="http://www.w3.org/1999/xlink" width="1000" height="300" viewBox="0 0 1000 300"><svg xml:space="preserve" width="1000" height="300" data-version="2" data-id="lg_iDi6A7K3YJwt8nzA72" viewBox="0 0 332 118" x="0" y="0"><rect width="100%" height="100%" fill="transparent"></rect><path fill="#3c50e0" stroke="#3c50e0" stroke-width="2" d="m4.323 75.443 323.354.694"></path><path fill="#3c50e0" d="M83.63 5.719c-12.758 0-23.1 10.342-23.1 23.1s10.342 23.1 23.1 23.1 23.1-10.342 23.1-23.1-10.342-23.1-23.1-23.1m-1.1 4.4h2.2v3.3h-2.2Zm-14.3 19.8h-3.3v-2.2h3.3Zm16.5 17.6h-2.2v-3.3h2.2Zm-.253-17.996a1.1 1.1 0 0 1-1.485.187l-7.7-5.5 1.276-1.782 6.875 4.906 10.34-12.43 1.694 1.43Zm14.553.396v-2.2h3.3v2.2Z"></path><path fill="#3c50e0" d="M110.03 18.919a4.4 4.4 0 0 0-.737.077 27.478 27.478 0 0 0-51.337 0 4.4 4.4 0 0 0-.726-.077c-3.696 0-6.6 4.345-6.6 9.9s2.904 9.9 6.6 9.9a4.4 4.4 0 0 0 1.848-.385 1.1 1.1 0 0 0 .605-1.364 25.3 25.3 0 0 1-1.353-8.151c.006-12.374 8.96-22.928 21.168-24.948s24.087 5.085 28.079 16.797a25.3 25.3 0 0 1 1.353 8.151 36.3 36.3 0 0 1-.99 8.393c-2.178 9.02-8.635 18.623-20.185 19.063a4.51 4.51 0 0 0-4.125-2.156c-2.464 0-4.4 1.452-4.4 3.3s1.936 3.3 4.4 3.3a4.4 4.4 0 0 0 4.158-2.233c10.483-.396 18.799-7.865 22.022-19.789l.22.022c3.696 0 6.6-4.345 6.6-9.9s-2.904-9.9-6.6-9.9m-26.4 39.6c-1.342 0-2.2-.649-2.2-1.1s.858-1.1 2.2-1.1 2.2.649 2.2 1.1-.858 1.1-2.2 1.1"></path><path fill="#fff" d="m142.17 12.25-2.81-.32.05-.79h22.69l-.05.15.68 7.48-1.06.42-.84-6.99h-14.42v17.11h12.67q.26.06.47-.13.22-.18.22-.5l.21-3.66.85-.1v9.06q-.06 0-.8.05l-.21-3.66h-13.41v16.81h15.85l1-8.48 1.01.26-.79 9.28h-13.47l-10.65.05.05-.74 2.76-.37q.53-.06.64-.69V12.94q-.11-.64-.64-.69m28.68 0-2.81-.32.06-.79h12.93q7.15 0 11.47 4.16t4.32 13.54q0 9.27-3.02 13.88-2.65 4.03-8.27 5.09-2.49.43-5.83.43h-1l-10.66.05.06-.74 2.75-.37q.53-.06.64-.69v-33.5q-.11-.69-.64-.74m9.91-.32h-5.67v35.51h4.35q2.54 0 4.32-.29 1.77-.29 3.71-1.38 1.93-1.09 3.05-2.99 2.7-4.51 2.7-13.68 0-9.54-3.76-13.51-3.45-3.66-8.7-3.66m31.48 36.31-10.66.05.06-.74 2.75-.37q.53-.06.64-.69h.05v-33.5h-.05q-.11-.69-.64-.74l-2.75-.27-.06-.79 10.66-.05q0 .05.05.79l-3.6.32v34.98l3.6.21q0 .05-.05.8m7.95-35.99-2.81-.32.05-.79h22.68l-.05.15.69 7.48-1.06.42-.85-6.99h-14.41v17.11h12.66q.27.06.48-.13.21-.18.21-.5l.21-3.66.85-.1v9.06q-.05 0-.79.05l-.21-3.66h-13.41v16.86l3.65.21q0 .05-.05.8l-10.65.05.05-.74 2.76-.37q.53-.06.63-.69V12.94q-.1-.64-.63-.69m44.89-1.06 10.33-.05q0 .05.06.79l-3.03.27-11.34 23.53v11.5l3.87.21q0 .05-.05.8l-10.6.05q0-.48.05-.74l2.76-.37q.53-.06.63-.69V35.73l-11.92-23.27q-.21-.16-.43-.26l-2.22-.22q-.05-.31-.05-.79l10.7-.05q0 .05.05.79l-4.34.37 10.97 22.53 9.91-21.73q0-.64-.48-.69l-4.82-.43q-.05-.31-.05-.79m-239.7 97.73-.12 1.44h-9.1v-16.8h1.64v15.36zm3.01-10.56 1.56-.12v12.12h-1.56zm.72-3.22q-.48 0-.73-.31t-.25-.79.28-.78q.27-.3.75-.3t.78.3.3.83-.32.79q-.33.26-.81.26m5.99 10.59q-1.78-.89-1.78-3.34 0-2.01 1.4-3.07 1.39-1.06 3.55-1.06.57 0 1.41.12l4.52-.12-.05.92h-2.62q1.32.98 1.32 2.96t-1.32 3.05-3.41 1.07q-1.34 0-2.23-.24-.45.43-.45 1 0 .82.9 1.18t2.12.53q2.71.36 3.91 1.01 1.73.96 1.73 2.95t-1.9 2.95q-1.44.72-3.48.72t-3.14-.31q-2.9-.84-2.9-3.12t2.56-3.87q-1-.74-1-1.72 0-.99.86-1.61m7.44 6.93q0-1.56-2.06-2.16-.58-.16-2.07-.4t-2.33-.58q-1.84 1.54-1.84 2.98 0 .62.19 1.03t.67.72q1.06.72 3.22.72 2.83 0 3.84-1.2.38-.46.38-1.11m-1.32-10.58q0-2.54-3.02-2.54-1.44 0-2.38.66t-.94 2.01q0 1.36.68 2.07.67.7 2.26.7 1.6 0 2.5-.76.9-.77.9-2.14m7.42-9.72v7.37q1.89-1.37 3.64-1.44 1.49 0 2.28.36.8.36 1.3 1.02t.5 1.86v8.83H54.8v-8.42q0-.89-.38-1.37-.77-.89-2.35-.89-1.56.07-3.43 1.01v9.67h-1.56V92.48zm15.33 16.27.29 1.3q-.43.43-1.56.43-1.58 0-2.14-.82-.93-.88-.93-2.4v-7.39h-1.35l.22-1.39h1.13v-2.38l1.56-.14v2.52h2.78v1.39h-2.78v7.78q0 1.39 1.44 1.39.62 0 1.34-.29m20.42-10.25-.12-3.04q-1.23-.48-2.57-.48-2.71 0-4.38 1.99t-1.67 5.83 1.75 5.38q1.2 1.08 3.34 1.08 1.37 0 2.75-.32 1.38-.31 1.88-.6l.34 1.18q-1.06.7-3.7.96-.77.1-1.62.1t-2-.28q-1.16-.28-2.14-1.12-2.23-1.89-2.23-6.31 0-4.41 2.1-6.83 2.1-2.41 5.46-2.41 1.87 0 3.21.75.51.26.8.57v3.48zM95 98.6l-.62 1.44q-.38-.22-.82-.22-.43 0-.48.03-.91 0-1.83.66-.93.66-1.57 1.47v8.38h-1.56v-12l1.56-.12v2.69q.88-1.13 1.51-1.59 1.15-.86 2.21-.91.14-.02.52-.02.39 0 1.08.19m5.91 1.08q-1.35.07-2.91.89v9.79h-1.56v-12l1.56-.12v1.34q1.61-1.22 3.12-1.29 2.55 0 3.51 1.27 1.82-1.2 3.53-1.27 1.46 0 2.25.36t1.31 1.02.52 1.86v8.83h-1.56v-8.42q0-.89-.41-1.37-.75-.89-2.11-.89-1.44 0-3.08.86.12.48.12.99v8.83h-1.56v-8.42q0-.89-.38-1.37-.77-.89-2.35-.89m30.84-6.12-.12 1.44h-6.99v6.31h6.48l-.12 1.44h-6.36v7.61h-1.63v-16.8zm2.59 13.73q-.43-1.15-.43-2.69 0-2.95 1.65-4.64 1.66-1.7 4.16-1.7 3.91 0 5.13 3.17.46 1.15.46 2.69 0 2.95-1.66 4.64-1.65 1.7-4.15 1.7-3.91 0-5.16-3.17m1.13-2.86q0 2.21 1.14 3.42t2.94 1.21 3-1.28 1.2-3.49-1.13-3.42-2.94-1.21-3.01 1.28-1.2 3.49m19.37-5.83-.63 1.44q-.38-.22-.81-.22-.44 0-.48.03-.92 0-1.84.66t-1.57 1.47v8.38h-1.56v-12l1.56-.12v2.69q.89-1.13 1.51-1.59 1.15-.86 2.21-.91.14-.02.53-.02.38 0 1.08.19m17.83-5.04-.12 1.44h-6.99v6.31h6.48l-.12 1.44h-6.36v6.17h7.59l-.12 1.44h-9.1v-16.8zm6.83 16.8-4.44-12 1.75-.12 3.48 10.27 3.77-10.15 1.73-.12-4.85 12.12zm10.16-5.9v.38q0 4.22 4.03 4.22 1.71 0 3.12-.45.36-.12.51-.19l.36 1.27q-.84.5-3.05.72-.63.05-1.32.05-2.02 0-3.36-1.01-1.85-1.37-1.85-4.56t1.67-4.91 4.04-1.72q2.38 0 3.58 1.54.91 1.22.91 3.24 0 .48-.05 1.01h-8.57q-.02.19-.02.41m4.25-4.71q-1.49 0-2.55.9-1.05.9-1.46 2.32h6.98q-.12-2.67-2.06-3.1-.43-.12-.91-.12m13.57-1.15-.62 1.44q-.39-.22-.82-.22t-.48.03q-.91 0-1.83.66-.93.66-1.58 1.47v8.38h-1.56v-12l1.56-.12v2.69q.89-1.13 1.52-1.59 1.15-.86 2.2-.91.15-.02.53-.02.39 0 1.08.19m5.24 11.76-4.27-12 1.75-.12 3.58 10.99 4.61-10.87h1.68l-7.97 18h-1.46l2.64-6zm24.44-9.65q2.66.99 2.66 4.44 0 1.75-.4 2.71-.39.96-1.14 1.52-1.36.98-4.27.98h-3.96v-16.8h3.6q3.79 0 4.8 1.92.36.67.36 1.63t-.49 1.97-1.16 1.63m-2.67.94h-2.81v7.39h2.21q2.23 0 3.15-.6 1.15-.74 1.15-2.95 0-3-2.11-3.63-.7-.21-1.59-.21m1.51-1.23q1.18-1.53 1.18-3.02t-.94-2q-.93-.52-2.71-.52h-1.85v5.45h2.93q.72 0 1.39.09m9.41 8.41q.53.2 1.68.2t2.98-.94v-9.72l1.56-.12v12.12h-1.56v-1.3q-1.78 1.37-3.63 1.37-2.3 0-3.33-1.37-.53-.67-.53-1.87v-8.83l1.56-.12v8.54q0 1.49 1.27 2.04m16.53-10.23-.39 1.34q-.86-.28-2.35-.28t-2.3.52q-.82.53-.82 1.31t.48 1.14 1.2.61q.72.26 1.57.5.86.24 1.58.62 1.68.86 1.68 2.57 0 1.7-1.17 2.61-1.16.92-3.39.92-1.13 0-2.18-.23-1.04-.23-1.59-.64l.53-1.27q.55.48 2.23.7.53.07 1.08.07 1.25 0 2.09-.52.84-.51.84-1.57 0-.72-.48-1.13t-1.2-.68q-.72-.28-1.58-.49-.85-.22-1.57-.57t-1.2-.91-.48-1.52q0-1.56 1.2-2.5t3.22-.94q.5 0 1.03.06l.96.11zm3.55-.24 1.56-.12v12.12h-1.56zm.72-3.22q-.48 0-.73-.31t-.25-.79.27-.78q.28-.3.76-.3t.78.3.3.83-.33.79q-.32.26-.8.26m5.58 3.1v1.44q1.8-1.32 3.41-1.39 1.46 0 2.25.36t1.31 1.02.52 1.86v8.83h-1.56v-8.42q0-.89-.39-1.37-.77-.89-2.35-.89-1.51.07-3.19.98v9.7h-1.56v-12zm12.05 6.22v.38q0 4.22 4.03 4.22 1.7 0 3.12-.45.36-.12.5-.19l.36 1.27q-.84.5-3.05.72-.62.05-1.32.05-2.01 0-3.36-1.01-1.84-1.37-1.84-4.56t1.66-4.91q1.67-1.72 4.05-1.72 2.37 0 3.57 1.54.92 1.22.92 3.24 0 .48-.05 1.01h-8.57q-.02.19-.02.41m4.24-4.71q-1.48 0-2.54.9t-1.46 2.32h6.98q-.12-2.67-2.06-3.1-.44-.12-.92-.12m13.91-1.15-.38 1.34q-.87-.28-2.36-.28-1.48 0-2.3.52-.82.53-.82 1.31t.48 1.14 1.2.61q.72.26 1.58.5.85.24 1.57.62 1.68.86 1.68 2.57 0 1.7-1.17 2.61-1.16.92-3.39.92-1.13 0-2.17-.23-1.05-.23-1.6-.64l.53-1.27q.55.48 2.23.7.53.07 1.08.07 1.25 0 2.09-.52.84-.51.84-1.57 0-.72-.48-1.13t-1.2-.68q-.72-.28-1.57-.49-.86-.22-1.58-.57t-1.2-.91-.48-1.52q0-1.56 1.2-2.5t3.22-.94q.5 0 1.03.06l.96.11zm10.25 0-.39 1.34q-.86-.28-2.35-.28t-2.3.52q-.82.53-.82 1.31t.48 1.14 1.2.61q.72.26 1.57.5.86.24 1.58.62 1.68.86 1.68 2.57 0 1.7-1.17 2.61-1.16.92-3.39.92-1.13 0-2.18-.23-1.04-.23-1.59-.64l.53-1.27q.55.48 2.23.7.53.07 1.08.07 1.25 0 2.09-.52.84-.51.84-1.57 0-.72-.48-1.13t-1.2-.68q-.72-.28-1.58-.49-.85-.22-1.57-.57t-1.2-.91-.48-1.52q0-1.56 1.2-2.5t3.22-.94q.5 0 1.03.06l.96.11z"></path></svg></svg>