<svg xmlns="http://www.w3.org/2000/svg" version="1.1" xmlns:xlink="http://www.w3.org/1999/xlink" width="1000" height="200" viewBox="0 0 1000 200"><svg xml:space="preserve" width="1000" height="200" data-version="2" data-id="lg_iDi6A7K3YJwt8nzA72" viewBox="0 0 332 78" x="0" y="0"><rect width="100%" height="100%" fill="transparent"></rect><path fill="#3c50e0" stroke="#3c50e0" stroke-width="2" d="m4.323 75.273 323.354.694"></path><path fill="#3c50e0" d="M83.63 5.549c-12.758 0-23.1 10.342-23.1 23.1s10.342 23.1 23.1 23.1 23.1-10.342 23.1-23.1-10.342-23.1-23.1-23.1m-1.1 4.4h2.2v3.3h-2.2Zm-14.3 19.8h-3.3v-2.2h3.3Zm16.5 17.6h-2.2v-3.3h2.2Zm-.253-17.996a1.1 1.1 0 0 1-1.485.187l-7.7-5.5 1.276-1.782 6.875 4.906 10.34-12.43 1.694 1.43Zm14.553.396v-2.2h3.3v2.2Z"></path><path fill="#3c50e0" d="M110.03 18.749a4.4 4.4 0 0 0-.737.077 27.478 27.478 0 0 0-51.337 0 4.4 4.4 0 0 0-.726-.077c-3.696 0-6.6 4.345-6.6 9.9s2.904 9.9 6.6 9.9a4.4 4.4 0 0 0 1.848-.385 1.1 1.1 0 0 0 .605-1.364 25.3 25.3 0 0 1-1.353-8.151c.006-12.374 8.96-22.928 21.168-24.948 12.208-2.02 24.087 5.085 28.079 16.797a25.3 25.3 0 0 1 1.353 8.151 36.3 36.3 0 0 1-.99 8.393c-2.178 9.02-8.635 18.623-20.185 19.063a4.51 4.51 0 0 0-4.125-2.156c-2.464 0-4.4 1.452-4.4 3.3s1.936 3.3 4.4 3.3a4.4 4.4 0 0 0 4.158-2.233c10.483-.396 18.799-7.865 22.022-19.789l.22.022c3.696 0 6.6-4.345 6.6-9.9s-2.904-9.9-6.6-9.9m-26.4 39.6c-1.342 0-2.2-.649-2.2-1.1 0-.451.858-1.1 2.2-1.1s2.2.649 2.2 1.1c0 .451-.858 1.1-2.2 1.1"></path><path fill="#fff" d="M165.58 48.06h-28.7v-3.27l4.22-.72V14.39l-4.22-.73v-3.28h27.9v9.05h-4.09l-.57-5.12H146.2v12.27h13.89v4.01H146.2v13.64h14.75l.57-5.21h4.06zm20.11 0h-15.01v-3.27l4.22-.72V14.39l-4.22-.73v-3.28h14.75q4.99 0 8.71 2.38 3.71 2.38 5.78 6.54 2.07 4.17 2.07 9.53v.8q0 5.23-1.99 9.41t-5.65 6.6q-3.67 2.42-8.66 2.42M180 14.39v29.68h5.43q3.57 0 6.13-1.95 2.57-1.96 3.95-5.23 1.38-3.27 1.38-7.26v-.85q0-4.12-1.38-7.37-1.38-3.24-3.95-5.13-2.56-1.89-6.13-1.89zm39.31 33.67h-13.54v-3.27l4.22-.72V14.39l-4.22-.73v-3.28h13.54v3.28l-4.22.73v29.68l4.22.72zm17.72 0H223.5v-3.27l4.22-.72V14.39l-4.22-.73v-3.28h28.34v9.05h-4.09l-.57-5.09h-14.37v13.04h13.8v4.01h-13.8v12.68l4.22.72zm42.54 0h-13.51v-3.27l4.22-.72v-9.73l-11.6-20.19-3.1-.49v-3.28h12.99v3.28l-4.3.49 8 14.81.54 1.01.03-.06.52-.95 8.38-14.81-4.45-.49v-3.28h12.73v3.28l-3.28.49-11.39 19.8v10.12l4.22.72z"></path></svg></svg>